<mxfile host="app.diagrams.net" modified="2024-07-01T08:04:41.684Z" agent="Mozilla/5.0 (Windows NT 10.0; Win64; x64) AppleWebKit/537.36 (KHTML, like Gecko) Chrome/126.0.0.0 Safari/537.36" etag="CKBG3MmZrMckPnDkxryl" version="24.6.4" type="device">
  <diagram name="Page-1" id="R6jkOG4R0NqM64R5n1Xo">
    <mxGraphModel dx="6174" dy="2789" grid="1" gridSize="10" guides="1" tooltips="1" connect="1" arrows="1" fold="1" page="0" pageScale="1" pageWidth="850" pageHeight="1100" background="none" math="0" shadow="0">
      <root>
        <mxCell id="0" />
        <mxCell id="1" parent="0" />
        <mxCell id="4u9UJ2Gs67Vg1K7T1l2k-2" value="&lt;font style=&quot;font-size: 36px;&quot;&gt;bank_staff&lt;/font&gt;" style="rounded=1;whiteSpace=wrap;html=1;labelBackgroundColor=none;fillColor=#182E3E;strokeColor=#FFFFFF;fontColor=#FFFFFF;" vertex="1" parent="1">
          <mxGeometry x="190" y="160" width="240" height="80" as="geometry" />
        </mxCell>
        <mxCell id="4u9UJ2Gs67Vg1K7T1l2k-3" value="&lt;font style=&quot;font-size: 24px;&quot;&gt;Manages&lt;/font&gt;" style="rhombus;whiteSpace=wrap;html=1;labelBackgroundColor=none;fillColor=#182E3E;strokeColor=#FFFFFF;fontColor=#FFFFFF;" vertex="1" parent="1">
          <mxGeometry x="247.5" y="485" width="125" height="130" as="geometry" />
        </mxCell>
        <mxCell id="4u9UJ2Gs67Vg1K7T1l2k-6" value="&lt;font style=&quot;font-size: 36px;&quot;&gt;bank_customer&lt;/font&gt;" style="rounded=1;whiteSpace=wrap;html=1;labelBackgroundColor=none;fillColor=#182E3E;strokeColor=#FFFFFF;fontColor=#FFFFFF;" vertex="1" parent="1">
          <mxGeometry x="190" y="850" width="240" height="80" as="geometry" />
        </mxCell>
        <mxCell id="4u9UJ2Gs67Vg1K7T1l2k-7" value="" style="endArrow=none;html=1;rounded=0;entryX=0.5;entryY=1;entryDx=0;entryDy=0;exitX=0.5;exitY=0;exitDx=0;exitDy=0;labelBackgroundColor=none;strokeColor=#23445D;fontColor=default;" edge="1" parent="1" source="4u9UJ2Gs67Vg1K7T1l2k-3" target="4u9UJ2Gs67Vg1K7T1l2k-2">
          <mxGeometry width="50" height="50" relative="1" as="geometry">
            <mxPoint x="310" y="485" as="sourcePoint" />
            <mxPoint x="460" y="385" as="targetPoint" />
          </mxGeometry>
        </mxCell>
        <mxCell id="4u9UJ2Gs67Vg1K7T1l2k-10" value="" style="endArrow=none;html=1;rounded=0;exitX=0.5;exitY=0;exitDx=0;exitDy=0;entryX=0.5;entryY=1;entryDx=0;entryDy=0;labelBackgroundColor=none;strokeColor=#23445D;fontColor=default;" edge="1" parent="1" source="4u9UJ2Gs67Vg1K7T1l2k-6" target="4u9UJ2Gs67Vg1K7T1l2k-3">
          <mxGeometry width="50" height="50" relative="1" as="geometry">
            <mxPoint x="310" y="660" as="sourcePoint" />
            <mxPoint x="360" y="610" as="targetPoint" />
          </mxGeometry>
        </mxCell>
        <mxCell id="4u9UJ2Gs67Vg1K7T1l2k-11" value="&lt;span style=&quot;font-size: 24px;&quot;&gt;add/&amp;nbsp;&lt;/span&gt;&lt;div&gt;&lt;span style=&quot;font-size: 24px;&quot;&gt;manage&lt;/span&gt;&lt;/div&gt;" style="rhombus;whiteSpace=wrap;html=1;labelBackgroundColor=none;fillColor=#182E3E;strokeColor=#FFFFFF;fontColor=#FFFFFF;" vertex="1" parent="1">
          <mxGeometry x="670" y="825" width="125" height="130" as="geometry" />
        </mxCell>
        <mxCell id="4u9UJ2Gs67Vg1K7T1l2k-13" value="" style="endArrow=none;html=1;rounded=0;entryX=0;entryY=0.5;entryDx=0;entryDy=0;exitX=1;exitY=0.5;exitDx=0;exitDy=0;labelBackgroundColor=none;strokeColor=#23445D;fontColor=default;" edge="1" parent="1" source="4u9UJ2Gs67Vg1K7T1l2k-6" target="4u9UJ2Gs67Vg1K7T1l2k-11">
          <mxGeometry width="50" height="50" relative="1" as="geometry">
            <mxPoint x="430" y="895" as="sourcePoint" />
            <mxPoint x="430" y="650" as="targetPoint" />
          </mxGeometry>
        </mxCell>
        <mxCell id="4u9UJ2Gs67Vg1K7T1l2k-14" value="&lt;span style=&quot;font-size: 36px;&quot;&gt;beneficiary&lt;/span&gt;" style="rounded=1;whiteSpace=wrap;html=1;labelBackgroundColor=none;fillColor=#182E3E;strokeColor=#FFFFFF;fontColor=#FFFFFF;" vertex="1" parent="1">
          <mxGeometry x="1035" y="850" width="240" height="80" as="geometry" />
        </mxCell>
        <mxCell id="4u9UJ2Gs67Vg1K7T1l2k-15" value="" style="endArrow=none;html=1;rounded=0;entryX=0;entryY=0.5;entryDx=0;entryDy=0;exitX=1;exitY=0.5;exitDx=0;exitDy=0;labelBackgroundColor=none;strokeColor=#23445D;fontColor=default;" edge="1" parent="1" source="4u9UJ2Gs67Vg1K7T1l2k-11" target="4u9UJ2Gs67Vg1K7T1l2k-14">
          <mxGeometry width="50" height="50" relative="1" as="geometry">
            <mxPoint x="795" y="889" as="sourcePoint" />
            <mxPoint x="1035" y="889" as="targetPoint" />
          </mxGeometry>
        </mxCell>
        <mxCell id="4u9UJ2Gs67Vg1K7T1l2k-17" value="&lt;span style=&quot;font-size: 24px;&quot;&gt;have&lt;/span&gt;" style="rhombus;whiteSpace=wrap;html=1;labelBackgroundColor=none;fillColor=#182E3E;strokeColor=#FFFFFF;fontColor=#FFFFFF;" vertex="1" parent="1">
          <mxGeometry x="247.5" y="1170" width="125" height="130" as="geometry" />
        </mxCell>
        <mxCell id="4u9UJ2Gs67Vg1K7T1l2k-18" value="" style="endArrow=none;html=1;rounded=0;exitX=0.5;exitY=0;exitDx=0;exitDy=0;entryX=0.5;entryY=1;entryDx=0;entryDy=0;labelBackgroundColor=none;strokeColor=#23445D;fontColor=default;" edge="1" parent="1" source="4u9UJ2Gs67Vg1K7T1l2k-17" target="4u9UJ2Gs67Vg1K7T1l2k-6">
          <mxGeometry width="50" height="50" relative="1" as="geometry">
            <mxPoint x="309" y="1165" as="sourcePoint" />
            <mxPoint x="309" y="920" as="targetPoint" />
          </mxGeometry>
        </mxCell>
        <mxCell id="4u9UJ2Gs67Vg1K7T1l2k-19" value="&lt;span style=&quot;font-size: 36px;&quot;&gt;passbook&lt;/span&gt;" style="rounded=1;whiteSpace=wrap;html=1;labelBackgroundColor=none;fillColor=#182E3E;strokeColor=#FFFFFF;fontColor=#FFFFFF;" vertex="1" parent="1">
          <mxGeometry x="190" y="1570" width="240" height="80" as="geometry" />
        </mxCell>
        <mxCell id="4u9UJ2Gs67Vg1K7T1l2k-20" value="" style="endArrow=none;html=1;rounded=0;exitX=0.5;exitY=0;exitDx=0;exitDy=0;entryX=0.5;entryY=0.923;entryDx=0;entryDy=0;entryPerimeter=0;labelBackgroundColor=none;strokeColor=#23445D;fontColor=default;" edge="1" parent="1" source="4u9UJ2Gs67Vg1K7T1l2k-19" target="4u9UJ2Gs67Vg1K7T1l2k-17">
          <mxGeometry width="50" height="50" relative="1" as="geometry">
            <mxPoint x="309" y="1540" as="sourcePoint" />
            <mxPoint x="309" y="1300" as="targetPoint" />
          </mxGeometry>
        </mxCell>
        <mxCell id="4u9UJ2Gs67Vg1K7T1l2k-21" value="" style="endArrow=none;html=1;rounded=0;entryX=0.08;entryY=0.489;entryDx=0;entryDy=0;exitX=1;exitY=0.5;exitDx=0;exitDy=0;entryPerimeter=0;labelBackgroundColor=none;strokeColor=#23445D;fontColor=default;" edge="1" parent="1" source="4u9UJ2Gs67Vg1K7T1l2k-2" target="4u9UJ2Gs67Vg1K7T1l2k-22">
          <mxGeometry width="50" height="50" relative="1" as="geometry">
            <mxPoint x="425" y="198.57000000000005" as="sourcePoint" />
            <mxPoint x="665" y="198.57000000000005" as="targetPoint" />
          </mxGeometry>
        </mxCell>
        <mxCell id="4u9UJ2Gs67Vg1K7T1l2k-22" value="&lt;span style=&quot;font-size: 24px;&quot;&gt;approve&lt;/span&gt;" style="rhombus;whiteSpace=wrap;html=1;labelBackgroundColor=none;fillColor=#182E3E;strokeColor=#FFFFFF;fontColor=#FFFFFF;" vertex="1" parent="1">
          <mxGeometry x="670" y="135" width="125" height="130" as="geometry" />
        </mxCell>
        <mxCell id="4u9UJ2Gs67Vg1K7T1l2k-23" value="" style="endArrow=none;html=1;rounded=0;entryX=0;entryY=0.5;entryDx=0;entryDy=0;exitX=1;exitY=0.5;exitDx=0;exitDy=0;labelBackgroundColor=none;strokeColor=#23445D;fontColor=default;" edge="1" parent="1" source="4u9UJ2Gs67Vg1K7T1l2k-22" target="4u9UJ2Gs67Vg1K7T1l2k-25">
          <mxGeometry width="50" height="50" relative="1" as="geometry">
            <mxPoint x="795" y="198.57000000000005" as="sourcePoint" />
            <mxPoint x="1035" y="198.57000000000005" as="targetPoint" />
          </mxGeometry>
        </mxCell>
        <mxCell id="4u9UJ2Gs67Vg1K7T1l2k-25" value="&lt;span style=&quot;font-size: 36px;&quot;&gt;pending_&lt;/span&gt;&lt;div&gt;&lt;span style=&quot;font-size: 36px;&quot;&gt;account&lt;/span&gt;&lt;/div&gt;" style="rounded=1;whiteSpace=wrap;html=1;labelBackgroundColor=none;fillColor=#182E3E;strokeColor=#FFFFFF;fontColor=#FFFFFF;" vertex="1" parent="1">
          <mxGeometry x="1035" y="160" width="240" height="80" as="geometry" />
        </mxCell>
        <mxCell id="4u9UJ2Gs67Vg1K7T1l2k-26" value="&lt;font style=&quot;font-size: 30px;&quot;&gt;&lt;u&gt;ID&lt;/u&gt;&lt;/font&gt;" style="ellipse;whiteSpace=wrap;html=1;labelBackgroundColor=none;fillColor=#182E3E;strokeColor=#FFFFFF;fontColor=#FFFFFF;" vertex="1" parent="1">
          <mxGeometry x="520" y="-310" width="170" height="90" as="geometry" />
        </mxCell>
        <mxCell id="4u9UJ2Gs67Vg1K7T1l2k-27" value="&lt;span style=&quot;font-size: 30px;&quot;&gt;staff_name&lt;/span&gt;" style="ellipse;whiteSpace=wrap;html=1;labelBackgroundColor=none;fillColor=#182E3E;strokeColor=#FFFFFF;fontColor=#FFFFFF;" vertex="1" parent="1">
          <mxGeometry x="580" y="-190" width="170" height="90" as="geometry" />
        </mxCell>
        <mxCell id="4u9UJ2Gs67Vg1K7T1l2k-28" value="&lt;span style=&quot;font-size: 30px;&quot;&gt;staff_id&lt;/span&gt;" style="ellipse;whiteSpace=wrap;html=1;labelBackgroundColor=none;fillColor=#182E3E;strokeColor=#FFFFFF;fontColor=#FFFFFF;" vertex="1" parent="1">
          <mxGeometry x="390" y="-420" width="170" height="90" as="geometry" />
        </mxCell>
        <mxCell id="4u9UJ2Gs67Vg1K7T1l2k-29" value="&lt;span style=&quot;font-size: 30px;&quot;&gt;password&lt;/span&gt;" style="ellipse;whiteSpace=wrap;html=1;labelBackgroundColor=none;fillColor=#182E3E;strokeColor=#FFFFFF;fontColor=#FFFFFF;" vertex="1" parent="1">
          <mxGeometry x="560" y="-70" width="170" height="90" as="geometry" />
        </mxCell>
        <mxCell id="4u9UJ2Gs67Vg1K7T1l2k-31" value="&lt;span style=&quot;font-size: 30px;&quot;&gt;mobile_&lt;/span&gt;&lt;div&gt;&lt;span style=&quot;font-size: 30px;&quot;&gt;number&lt;/span&gt;&lt;/div&gt;" style="ellipse;whiteSpace=wrap;html=1;labelBackgroundColor=none;fillColor=#182E3E;strokeColor=#FFFFFF;fontColor=#FFFFFF;" vertex="1" parent="1">
          <mxGeometry x="240" y="-480" width="170" height="90" as="geometry" />
        </mxCell>
        <mxCell id="4u9UJ2Gs67Vg1K7T1l2k-32" value="&lt;span style=&quot;font-size: 30px;&quot;&gt;email_id&lt;/span&gt;" style="ellipse;whiteSpace=wrap;html=1;labelBackgroundColor=none;fillColor=#182E3E;strokeColor=#FFFFFF;fontColor=#FFFFFF;" vertex="1" parent="1">
          <mxGeometry x="60" y="-500" width="170" height="90" as="geometry" />
        </mxCell>
        <mxCell id="4u9UJ2Gs67Vg1K7T1l2k-33" value="&lt;span style=&quot;font-size: 30px;&quot;&gt;gender&lt;/span&gt;" style="ellipse;whiteSpace=wrap;html=1;labelBackgroundColor=none;fillColor=#182E3E;strokeColor=#FFFFFF;fontColor=#FFFFFF;" vertex="1" parent="1">
          <mxGeometry x="-100" y="-450" width="170" height="90" as="geometry" />
        </mxCell>
        <mxCell id="4u9UJ2Gs67Vg1K7T1l2k-34" value="&lt;span style=&quot;font-size: 30px;&quot;&gt;department&lt;/span&gt;" style="ellipse;whiteSpace=wrap;html=1;labelBackgroundColor=none;fillColor=#182E3E;strokeColor=#FFFFFF;fontColor=#FFFFFF;" vertex="1" parent="1">
          <mxGeometry x="-160" y="-340" width="170" height="90" as="geometry" />
        </mxCell>
        <mxCell id="4u9UJ2Gs67Vg1K7T1l2k-35" value="&lt;span style=&quot;font-size: 30px;&quot;&gt;DOB&lt;/span&gt;" style="ellipse;whiteSpace=wrap;html=1;labelBackgroundColor=none;fillColor=#182E3E;strokeColor=#FFFFFF;fontColor=#FFFFFF;" vertex="1" parent="1">
          <mxGeometry x="-180" y="-230" width="170" height="90" as="geometry" />
        </mxCell>
        <mxCell id="4u9UJ2Gs67Vg1K7T1l2k-36" value="&lt;span style=&quot;font-size: 30px;&quot;&gt;citizenship&lt;/span&gt;" style="ellipse;whiteSpace=wrap;html=1;labelBackgroundColor=none;fillColor=#182E3E;strokeColor=#FFFFFF;fontColor=#FFFFFF;" vertex="1" parent="1">
          <mxGeometry x="-200" y="-110" width="170" height="90" as="geometry" />
        </mxCell>
        <mxCell id="4u9UJ2Gs67Vg1K7T1l2k-37" value="&lt;span style=&quot;font-size: 30px;&quot;&gt;home_addr&lt;/span&gt;" style="ellipse;whiteSpace=wrap;html=1;labelBackgroundColor=none;fillColor=#182E3E;strokeColor=#FFFFFF;fontColor=#FFFFFF;" vertex="1" parent="1">
          <mxGeometry x="-190" width="170" height="90" as="geometry" />
        </mxCell>
        <mxCell id="4u9UJ2Gs67Vg1K7T1l2k-39" value="&lt;span style=&quot;font-size: 30px;&quot;&gt;last_login&lt;/span&gt;" style="ellipse;whiteSpace=wrap;html=1;labelBackgroundColor=none;fillColor=#182E3E;strokeColor=#FFFFFF;fontColor=#FFFFFF;" vertex="1" parent="1">
          <mxGeometry x="-110" y="110" width="170" height="90" as="geometry" />
        </mxCell>
        <mxCell id="4u9UJ2Gs67Vg1K7T1l2k-40" value="&lt;span style=&quot;font-size: 30px;&quot;&gt;mobile_&lt;/span&gt;&lt;div&gt;&lt;span style=&quot;font-size: 30px;&quot;&gt;number&lt;/span&gt;&lt;/div&gt;" style="ellipse;whiteSpace=wrap;html=1;labelBackgroundColor=none;fillColor=#182E3E;strokeColor=#FFFFFF;fontColor=#FFFFFF;" vertex="1" parent="1">
          <mxGeometry x="530" y="50" width="170" height="90" as="geometry" />
        </mxCell>
        <mxCell id="4u9UJ2Gs67Vg1K7T1l2k-43" value="" style="endArrow=none;html=1;rounded=0;entryX=0.674;entryY=0.999;entryDx=0;entryDy=0;entryPerimeter=0;exitX=0.25;exitY=0;exitDx=0;exitDy=0;labelBackgroundColor=none;strokeColor=#23445D;fontColor=default;" edge="1" parent="1" source="4u9UJ2Gs67Vg1K7T1l2k-2" target="4u9UJ2Gs67Vg1K7T1l2k-32">
          <mxGeometry width="50" height="50" relative="1" as="geometry">
            <mxPoint x="230" y="150" as="sourcePoint" />
            <mxPoint x="280" y="100" as="targetPoint" />
          </mxGeometry>
        </mxCell>
        <mxCell id="4u9UJ2Gs67Vg1K7T1l2k-44" value="" style="endArrow=none;html=1;rounded=0;entryX=0.32;entryY=1.083;entryDx=0;entryDy=0;entryPerimeter=0;exitX=0.415;exitY=-0.045;exitDx=0;exitDy=0;exitPerimeter=0;labelBackgroundColor=none;strokeColor=#23445D;fontColor=default;" edge="1" parent="1" source="4u9UJ2Gs67Vg1K7T1l2k-2" target="4u9UJ2Gs67Vg1K7T1l2k-31">
          <mxGeometry width="50" height="50" relative="1" as="geometry">
            <mxPoint x="385" y="155" as="sourcePoint" />
            <mxPoint x="270" y="-425" as="targetPoint" />
          </mxGeometry>
        </mxCell>
        <mxCell id="4u9UJ2Gs67Vg1K7T1l2k-45" value="" style="endArrow=none;html=1;rounded=0;exitX=0.171;exitY=-0.013;exitDx=0;exitDy=0;exitPerimeter=0;entryX=1;entryY=0.5;entryDx=0;entryDy=0;labelBackgroundColor=none;strokeColor=#23445D;fontColor=default;" edge="1" parent="1" source="4u9UJ2Gs67Vg1K7T1l2k-2" target="4u9UJ2Gs67Vg1K7T1l2k-33">
          <mxGeometry width="50" height="50" relative="1" as="geometry">
            <mxPoint x="155" y="215" as="sourcePoint" />
            <mxPoint x="30" y="-390" as="targetPoint" />
          </mxGeometry>
        </mxCell>
        <mxCell id="4u9UJ2Gs67Vg1K7T1l2k-46" value="" style="endArrow=none;html=1;rounded=0;entryX=1;entryY=1;entryDx=0;entryDy=0;exitX=0.108;exitY=-0.013;exitDx=0;exitDy=0;exitPerimeter=0;labelBackgroundColor=none;strokeColor=#23445D;fontColor=default;" edge="1" parent="1" source="4u9UJ2Gs67Vg1K7T1l2k-2" target="4u9UJ2Gs67Vg1K7T1l2k-34">
          <mxGeometry width="50" height="50" relative="1" as="geometry">
            <mxPoint x="75" y="310" as="sourcePoint" />
            <mxPoint x="-40" y="-270" as="targetPoint" />
          </mxGeometry>
        </mxCell>
        <mxCell id="4u9UJ2Gs67Vg1K7T1l2k-47" value="" style="endArrow=none;html=1;rounded=0;entryX=1;entryY=0;entryDx=0;entryDy=0;exitX=0;exitY=0;exitDx=0;exitDy=0;labelBackgroundColor=none;strokeColor=#23445D;fontColor=default;" edge="1" parent="1" source="4u9UJ2Gs67Vg1K7T1l2k-2" target="4u9UJ2Gs67Vg1K7T1l2k-35">
          <mxGeometry width="50" height="50" relative="1" as="geometry">
            <mxPoint x="20" y="400" as="sourcePoint" />
            <mxPoint x="-95" y="-180" as="targetPoint" />
          </mxGeometry>
        </mxCell>
        <mxCell id="4u9UJ2Gs67Vg1K7T1l2k-48" value="" style="endArrow=none;html=1;rounded=0;entryX=1;entryY=0.5;entryDx=0;entryDy=0;labelBackgroundColor=none;strokeColor=#23445D;fontColor=default;" edge="1" parent="1" target="4u9UJ2Gs67Vg1K7T1l2k-36">
          <mxGeometry width="50" height="50" relative="1" as="geometry">
            <mxPoint x="200" y="170" as="sourcePoint" />
            <mxPoint x="-80" y="-60" as="targetPoint" />
          </mxGeometry>
        </mxCell>
        <mxCell id="4u9UJ2Gs67Vg1K7T1l2k-49" value="" style="endArrow=none;html=1;rounded=0;entryX=1;entryY=0.5;entryDx=0;entryDy=0;exitX=0;exitY=0.25;exitDx=0;exitDy=0;labelBackgroundColor=none;strokeColor=#23445D;fontColor=default;" edge="1" parent="1" source="4u9UJ2Gs67Vg1K7T1l2k-2" target="4u9UJ2Gs67Vg1K7T1l2k-37">
          <mxGeometry width="50" height="50" relative="1" as="geometry">
            <mxPoint x="65" y="650" as="sourcePoint" />
            <mxPoint x="-50" y="70" as="targetPoint" />
          </mxGeometry>
        </mxCell>
        <mxCell id="4u9UJ2Gs67Vg1K7T1l2k-50" value="" style="endArrow=none;html=1;rounded=0;entryX=1;entryY=0.667;entryDx=0;entryDy=0;entryPerimeter=0;exitX=0;exitY=0.75;exitDx=0;exitDy=0;labelBackgroundColor=none;strokeColor=#23445D;fontColor=default;" edge="1" parent="1" source="4u9UJ2Gs67Vg1K7T1l2k-2" target="4u9UJ2Gs67Vg1K7T1l2k-39">
          <mxGeometry width="50" height="50" relative="1" as="geometry">
            <mxPoint x="135" y="700" as="sourcePoint" />
            <mxPoint x="20" y="120" as="targetPoint" />
          </mxGeometry>
        </mxCell>
        <mxCell id="4u9UJ2Gs67Vg1K7T1l2k-51" value="" style="endArrow=none;html=1;rounded=0;entryX=0;entryY=0.5;entryDx=0;entryDy=0;exitX=0.5;exitY=0;exitDx=0;exitDy=0;labelBackgroundColor=none;strokeColor=#23445D;fontColor=default;" edge="1" parent="1" source="4u9UJ2Gs67Vg1K7T1l2k-2" target="4u9UJ2Gs67Vg1K7T1l2k-28">
          <mxGeometry width="50" height="50" relative="1" as="geometry">
            <mxPoint x="535" y="215" as="sourcePoint" />
            <mxPoint x="420" y="-365" as="targetPoint" />
          </mxGeometry>
        </mxCell>
        <mxCell id="4u9UJ2Gs67Vg1K7T1l2k-52" value="" style="endArrow=none;html=1;rounded=0;entryX=0;entryY=0.5;entryDx=0;entryDy=0;exitX=0.5;exitY=0;exitDx=0;exitDy=0;" edge="1" parent="1" source="4u9UJ2Gs67Vg1K7T1l2k-2" target="4u9UJ2Gs67Vg1K7T1l2k-26">
          <mxGeometry width="50" height="50" relative="1" as="geometry">
            <mxPoint x="320" y="140" as="sourcePoint" />
            <mxPoint x="225" y="-330" as="targetPoint" />
          </mxGeometry>
        </mxCell>
        <mxCell id="4u9UJ2Gs67Vg1K7T1l2k-53" value="" style="endArrow=none;html=1;rounded=0;entryX=0;entryY=0.5;entryDx=0;entryDy=0;exitX=0.625;exitY=0.024;exitDx=0;exitDy=0;exitPerimeter=0;" edge="1" parent="1" source="4u9UJ2Gs67Vg1K7T1l2k-2" target="4u9UJ2Gs67Vg1K7T1l2k-27">
          <mxGeometry width="50" height="50" relative="1" as="geometry">
            <mxPoint x="350" y="260" as="sourcePoint" />
            <mxPoint x="235" y="-320" as="targetPoint" />
          </mxGeometry>
        </mxCell>
        <mxCell id="4u9UJ2Gs67Vg1K7T1l2k-54" value="" style="endArrow=none;html=1;rounded=0;entryX=0;entryY=0.5;entryDx=0;entryDy=0;exitX=0.75;exitY=0;exitDx=0;exitDy=0;" edge="1" parent="1" source="4u9UJ2Gs67Vg1K7T1l2k-2" target="4u9UJ2Gs67Vg1K7T1l2k-29">
          <mxGeometry width="50" height="50" relative="1" as="geometry">
            <mxPoint x="360" y="270" as="sourcePoint" />
            <mxPoint x="245" y="-310" as="targetPoint" />
          </mxGeometry>
        </mxCell>
        <mxCell id="4u9UJ2Gs67Vg1K7T1l2k-55" value="" style="endArrow=none;html=1;rounded=0;entryX=0;entryY=0.5;entryDx=0;entryDy=0;exitX=1;exitY=0.25;exitDx=0;exitDy=0;" edge="1" parent="1" source="4u9UJ2Gs67Vg1K7T1l2k-2" target="4u9UJ2Gs67Vg1K7T1l2k-40">
          <mxGeometry width="50" height="50" relative="1" as="geometry">
            <mxPoint x="370" y="280" as="sourcePoint" />
            <mxPoint x="255" y="-300" as="targetPoint" />
          </mxGeometry>
        </mxCell>
        <mxCell id="4u9UJ2Gs67Vg1K7T1l2k-58" value="&lt;span style=&quot;font-size: 30px;&quot;&gt;&lt;u&gt;ID&lt;/u&gt;&lt;/span&gt;" style="ellipse;whiteSpace=wrap;html=1;labelBackgroundColor=none;fillColor=#182E3E;strokeColor=#FFFFFF;fontColor=#FFFFFF;" vertex="1" parent="1">
          <mxGeometry x="90" y="580" width="170" height="90" as="geometry" />
        </mxCell>
        <mxCell id="4u9UJ2Gs67Vg1K7T1l2k-59" value="&lt;span style=&quot;font-size: 30px;&quot;&gt;username&lt;/span&gt;" style="ellipse;whiteSpace=wrap;html=1;labelBackgroundColor=none;fillColor=#182E3E;strokeColor=#FFFFFF;fontColor=#FFFFFF;" vertex="1" parent="1">
          <mxGeometry x="-100" y="525" width="170" height="80" as="geometry" />
        </mxCell>
        <mxCell id="4u9UJ2Gs67Vg1K7T1l2k-60" value="&lt;span style=&quot;font-size: 30px;&quot;&gt;password&lt;/span&gt;" style="ellipse;whiteSpace=wrap;html=1;labelBackgroundColor=none;fillColor=#182E3E;strokeColor=#FFFFFF;fontColor=#FFFFFF;" vertex="1" parent="1">
          <mxGeometry x="-290" y="470" width="170" height="90" as="geometry" />
        </mxCell>
        <mxCell id="4u9UJ2Gs67Vg1K7T1l2k-61" value="&lt;span style=&quot;font-size: 30px;&quot;&gt;account_no&lt;/span&gt;" style="ellipse;whiteSpace=wrap;html=1;labelBackgroundColor=none;fillColor=#182E3E;strokeColor=#FFFFFF;fontColor=#FFFFFF;" vertex="1" parent="1">
          <mxGeometry x="-440" y="525" width="170" height="90" as="geometry" />
        </mxCell>
        <mxCell id="4u9UJ2Gs67Vg1K7T1l2k-62" value="&lt;span style=&quot;font-size: 30px;&quot;&gt;branch&lt;/span&gt;" style="ellipse;whiteSpace=wrap;html=1;labelBackgroundColor=none;fillColor=#182E3E;strokeColor=#FFFFFF;fontColor=#FFFFFF;" vertex="1" parent="1">
          <mxGeometry x="-570" y="590" width="170" height="90" as="geometry" />
        </mxCell>
        <mxCell id="4u9UJ2Gs67Vg1K7T1l2k-63" value="&lt;span style=&quot;font-size: 30px;&quot;&gt;citizenship&lt;/span&gt;" style="ellipse;whiteSpace=wrap;html=1;labelBackgroundColor=none;fillColor=#182E3E;strokeColor=#FFFFFF;fontColor=#FFFFFF;" vertex="1" parent="1">
          <mxGeometry x="-640" y="700" width="170" height="90" as="geometry" />
        </mxCell>
        <mxCell id="4u9UJ2Gs67Vg1K7T1l2k-64" value="&lt;span style=&quot;font-size: 30px;&quot;&gt;current_&lt;/span&gt;&lt;div&gt;&lt;span style=&quot;font-size: 30px;&quot;&gt;balance&lt;/span&gt;&lt;/div&gt;" style="ellipse;whiteSpace=wrap;html=1;labelBackgroundColor=none;fillColor=#182E3E;strokeColor=#FFFFFF;fontColor=#FFFFFF;" vertex="1" parent="1">
          <mxGeometry x="-650" y="810" width="170" height="90" as="geometry" />
        </mxCell>
        <mxCell id="4u9UJ2Gs67Vg1K7T1l2k-65" value="&lt;span style=&quot;font-size: 30px;&quot;&gt;mobile_no&lt;/span&gt;" style="ellipse;whiteSpace=wrap;html=1;labelBackgroundColor=none;fillColor=#182E3E;strokeColor=#FFFFFF;fontColor=#FFFFFF;" vertex="1" parent="1">
          <mxGeometry x="-570" y="920" width="170" height="90" as="geometry" />
        </mxCell>
        <mxCell id="4u9UJ2Gs67Vg1K7T1l2k-66" value="&lt;span style=&quot;font-size: 30px;&quot;&gt;debit_card_ no&lt;/span&gt;" style="ellipse;whiteSpace=wrap;html=1;labelBackgroundColor=none;fillColor=#182E3E;strokeColor=#FFFFFF;fontColor=#FFFFFF;" vertex="1" parent="1">
          <mxGeometry x="-490" y="1030" width="170" height="90" as="geometry" />
        </mxCell>
        <mxCell id="4u9UJ2Gs67Vg1K7T1l2k-69" value="&lt;span style=&quot;font-size: 30px;&quot;&gt;dob&lt;/span&gt;" style="ellipse;whiteSpace=wrap;html=1;labelBackgroundColor=none;fillColor=#182E3E;strokeColor=#FFFFFF;fontColor=#FFFFFF;" vertex="1" parent="1">
          <mxGeometry x="-300" y="1090" width="170" height="90" as="geometry" />
        </mxCell>
        <mxCell id="4u9UJ2Gs67Vg1K7T1l2k-70" value="&lt;span style=&quot;font-size: 30px;&quot;&gt;account_&lt;/span&gt;&lt;div&gt;&lt;span style=&quot;font-size: 30px;&quot;&gt;type&lt;/span&gt;&lt;/div&gt;" style="ellipse;whiteSpace=wrap;html=1;labelBackgroundColor=none;fillColor=#182E3E;strokeColor=#FFFFFF;fontColor=#FFFFFF;" vertex="1" parent="1">
          <mxGeometry x="-100" y="1170" width="170" height="90" as="geometry" />
        </mxCell>
        <mxCell id="4u9UJ2Gs67Vg1K7T1l2k-71" value="&lt;span style=&quot;font-size: 30px;&quot;&gt;customer_id&lt;/span&gt;" style="ellipse;whiteSpace=wrap;html=1;labelBackgroundColor=none;fillColor=#182E3E;strokeColor=#FFFFFF;fontColor=#FFFFFF;" vertex="1" parent="1">
          <mxGeometry x="100" y="1120" width="170" height="90" as="geometry" />
        </mxCell>
        <mxCell id="4u9UJ2Gs67Vg1K7T1l2k-77" value="" style="endArrow=none;html=1;rounded=0;entryX=0.5;entryY=1;entryDx=0;entryDy=0;exitX=0.367;exitY=-0.148;exitDx=0;exitDy=0;labelBackgroundColor=none;strokeColor=#23445D;fontColor=default;exitPerimeter=0;" edge="1" parent="1" source="4u9UJ2Gs67Vg1K7T1l2k-6" target="4u9UJ2Gs67Vg1K7T1l2k-58">
          <mxGeometry width="50" height="50" relative="1" as="geometry">
            <mxPoint x="270" y="845" as="sourcePoint" />
            <mxPoint x="60" y="710" as="targetPoint" />
          </mxGeometry>
        </mxCell>
        <mxCell id="4u9UJ2Gs67Vg1K7T1l2k-78" value="" style="endArrow=none;html=1;rounded=0;entryX=0.669;entryY=0.988;entryDx=0;entryDy=0;exitX=0.25;exitY=0;exitDx=0;exitDy=0;labelBackgroundColor=none;strokeColor=#23445D;fontColor=default;entryPerimeter=0;" edge="1" parent="1" source="4u9UJ2Gs67Vg1K7T1l2k-6" target="4u9UJ2Gs67Vg1K7T1l2k-59">
          <mxGeometry width="50" height="50" relative="1" as="geometry">
            <mxPoint x="260" y="755" as="sourcePoint" />
            <mxPoint x="50" y="620" as="targetPoint" />
          </mxGeometry>
        </mxCell>
        <mxCell id="4u9UJ2Gs67Vg1K7T1l2k-79" value="" style="endArrow=none;html=1;rounded=0;entryX=0.5;entryY=1;entryDx=0;entryDy=0;exitX=0.12;exitY=0;exitDx=0;exitDy=0;labelBackgroundColor=none;strokeColor=#23445D;fontColor=default;exitPerimeter=0;" edge="1" parent="1" source="4u9UJ2Gs67Vg1K7T1l2k-6" target="4u9UJ2Gs67Vg1K7T1l2k-60">
          <mxGeometry width="50" height="50" relative="1" as="geometry">
            <mxPoint x="110" y="675" as="sourcePoint" />
            <mxPoint x="-100" y="540" as="targetPoint" />
          </mxGeometry>
        </mxCell>
        <mxCell id="4u9UJ2Gs67Vg1K7T1l2k-80" value="" style="endArrow=none;html=1;rounded=0;entryX=1;entryY=0.5;entryDx=0;entryDy=0;exitX=0;exitY=0;exitDx=0;exitDy=0;labelBackgroundColor=none;strokeColor=#23445D;fontColor=default;" edge="1" parent="1" source="4u9UJ2Gs67Vg1K7T1l2k-6" target="4u9UJ2Gs67Vg1K7T1l2k-61">
          <mxGeometry width="50" height="50" relative="1" as="geometry">
            <mxPoint y="675" as="sourcePoint" />
            <mxPoint x="-210" y="540" as="targetPoint" />
          </mxGeometry>
        </mxCell>
        <mxCell id="4u9UJ2Gs67Vg1K7T1l2k-81" value="" style="endArrow=none;html=1;rounded=0;entryX=1.017;entryY=0.798;entryDx=0;entryDy=0;exitX=0;exitY=0.25;exitDx=0;exitDy=0;labelBackgroundColor=none;strokeColor=#23445D;fontColor=default;entryPerimeter=0;" edge="1" parent="1" source="4u9UJ2Gs67Vg1K7T1l2k-6" target="4u9UJ2Gs67Vg1K7T1l2k-62">
          <mxGeometry width="50" height="50" relative="1" as="geometry">
            <mxPoint x="-140" y="735" as="sourcePoint" />
            <mxPoint x="-350" y="600" as="targetPoint" />
          </mxGeometry>
        </mxCell>
        <mxCell id="4u9UJ2Gs67Vg1K7T1l2k-82" value="" style="endArrow=none;html=1;rounded=0;entryX=1;entryY=0;entryDx=0;entryDy=0;exitX=0;exitY=0.25;exitDx=0;exitDy=0;labelBackgroundColor=none;strokeColor=#23445D;fontColor=default;" edge="1" parent="1" source="4u9UJ2Gs67Vg1K7T1l2k-6" target="4u9UJ2Gs67Vg1K7T1l2k-63">
          <mxGeometry width="50" height="50" relative="1" as="geometry">
            <mxPoint x="-210" y="850" as="sourcePoint" />
            <mxPoint x="-420" y="715" as="targetPoint" />
          </mxGeometry>
        </mxCell>
        <mxCell id="4u9UJ2Gs67Vg1K7T1l2k-83" value="" style="endArrow=none;html=1;rounded=0;entryX=1;entryY=0;entryDx=0;entryDy=0;exitX=0;exitY=0.5;exitDx=0;exitDy=0;labelBackgroundColor=none;strokeColor=#23445D;fontColor=default;" edge="1" parent="1" source="4u9UJ2Gs67Vg1K7T1l2k-6" target="4u9UJ2Gs67Vg1K7T1l2k-64">
          <mxGeometry width="50" height="50" relative="1" as="geometry">
            <mxPoint x="-220" y="970" as="sourcePoint" />
            <mxPoint x="-430" y="835" as="targetPoint" />
          </mxGeometry>
        </mxCell>
        <mxCell id="4u9UJ2Gs67Vg1K7T1l2k-84" value="" style="endArrow=none;html=1;rounded=0;entryX=1;entryY=0.5;entryDx=0;entryDy=0;exitX=0;exitY=0.5;exitDx=0;exitDy=0;labelBackgroundColor=none;strokeColor=#23445D;fontColor=default;" edge="1" parent="1" source="4u9UJ2Gs67Vg1K7T1l2k-6" target="4u9UJ2Gs67Vg1K7T1l2k-65">
          <mxGeometry width="50" height="50" relative="1" as="geometry">
            <mxPoint x="-180" y="1055" as="sourcePoint" />
            <mxPoint x="-390" y="920" as="targetPoint" />
          </mxGeometry>
        </mxCell>
        <mxCell id="4u9UJ2Gs67Vg1K7T1l2k-85" value="" style="endArrow=none;html=1;rounded=0;entryX=1;entryY=0.5;entryDx=0;entryDy=0;exitX=0;exitY=0.75;exitDx=0;exitDy=0;labelBackgroundColor=none;strokeColor=#23445D;fontColor=default;" edge="1" parent="1" source="4u9UJ2Gs67Vg1K7T1l2k-6" target="4u9UJ2Gs67Vg1K7T1l2k-66">
          <mxGeometry width="50" height="50" relative="1" as="geometry">
            <mxPoint x="-20" y="1130" as="sourcePoint" />
            <mxPoint x="-230" y="995" as="targetPoint" />
          </mxGeometry>
        </mxCell>
        <mxCell id="4u9UJ2Gs67Vg1K7T1l2k-86" value="" style="endArrow=none;html=1;rounded=0;entryX=0.5;entryY=0;entryDx=0;entryDy=0;exitX=0.38;exitY=1.185;exitDx=0;exitDy=0;labelBackgroundColor=none;strokeColor=#23445D;fontColor=default;exitPerimeter=0;" edge="1" parent="1" source="4u9UJ2Gs67Vg1K7T1l2k-6" target="4u9UJ2Gs67Vg1K7T1l2k-71">
          <mxGeometry width="50" height="50" relative="1" as="geometry">
            <mxPoint x="430" y="1125" as="sourcePoint" />
            <mxPoint x="220" y="990" as="targetPoint" />
          </mxGeometry>
        </mxCell>
        <mxCell id="4u9UJ2Gs67Vg1K7T1l2k-87" value="" style="endArrow=none;html=1;rounded=0;entryX=0.664;entryY=-0.07;entryDx=0;entryDy=0;exitX=0.25;exitY=1;exitDx=0;exitDy=0;labelBackgroundColor=none;strokeColor=#23445D;fontColor=default;entryPerimeter=0;" edge="1" parent="1" source="4u9UJ2Gs67Vg1K7T1l2k-6" target="4u9UJ2Gs67Vg1K7T1l2k-70">
          <mxGeometry width="50" height="50" relative="1" as="geometry">
            <mxPoint x="260" y="1175" as="sourcePoint" />
            <mxPoint x="50" y="1040" as="targetPoint" />
          </mxGeometry>
        </mxCell>
        <mxCell id="4u9UJ2Gs67Vg1K7T1l2k-88" value="" style="endArrow=none;html=1;rounded=0;exitX=0;exitY=1;exitDx=0;exitDy=0;labelBackgroundColor=none;strokeColor=#23445D;fontColor=default;entryX=1;entryY=0;entryDx=0;entryDy=0;" edge="1" parent="1" source="4u9UJ2Gs67Vg1K7T1l2k-6" target="4u9UJ2Gs67Vg1K7T1l2k-69">
          <mxGeometry width="50" height="50" relative="1" as="geometry">
            <mxPoint x="90" y="1195" as="sourcePoint" />
            <mxPoint x="-70" y="1040" as="targetPoint" />
          </mxGeometry>
        </mxCell>
        <mxCell id="4u9UJ2Gs67Vg1K7T1l2k-89" value="&lt;span style=&quot;font-size: 30px;&quot;&gt;application&lt;/span&gt;&lt;div&gt;&lt;span style=&quot;font-size: 30px;&quot;&gt;date&lt;/span&gt;&lt;/div&gt;" style="ellipse;whiteSpace=wrap;html=1;labelBackgroundColor=none;fillColor=#182E3E;strokeColor=#FFFFFF;fontColor=#FFFFFF;" vertex="1" parent="1">
          <mxGeometry x="810" y="-80" width="170" height="90" as="geometry" />
        </mxCell>
        <mxCell id="4u9UJ2Gs67Vg1K7T1l2k-90" value="&lt;span style=&quot;font-size: 30px;&quot;&gt;account_type&lt;/span&gt;" style="ellipse;whiteSpace=wrap;html=1;labelBackgroundColor=none;fillColor=#182E3E;strokeColor=#FFFFFF;fontColor=#FFFFFF;" vertex="1" parent="1">
          <mxGeometry x="840" y="-220" width="170" height="90" as="geometry" />
        </mxCell>
        <mxCell id="4u9UJ2Gs67Vg1K7T1l2k-91" value="&lt;span style=&quot;font-size: 30px;&quot;&gt;name&lt;/span&gt;" style="ellipse;whiteSpace=wrap;html=1;labelBackgroundColor=none;fillColor=#182E3E;strokeColor=#FFFFFF;fontColor=#FFFFFF;" vertex="1" parent="1">
          <mxGeometry x="880" y="-360" width="170" height="90" as="geometry" />
        </mxCell>
        <mxCell id="4u9UJ2Gs67Vg1K7T1l2k-92" value="&lt;span style=&quot;font-size: 30px;&quot;&gt;mobile&lt;/span&gt;" style="ellipse;whiteSpace=wrap;html=1;labelBackgroundColor=none;fillColor=#182E3E;strokeColor=#FFFFFF;fontColor=#FFFFFF;" vertex="1" parent="1">
          <mxGeometry x="1010" y="-460" width="170" height="90" as="geometry" />
        </mxCell>
        <mxCell id="4u9UJ2Gs67Vg1K7T1l2k-93" value="&lt;span style=&quot;font-size: 30px;&quot;&gt;email&lt;/span&gt;" style="ellipse;whiteSpace=wrap;html=1;labelBackgroundColor=none;fillColor=#182E3E;strokeColor=#FFFFFF;fontColor=#FFFFFF;" vertex="1" parent="1">
          <mxGeometry x="1210" y="-470" width="170" height="90" as="geometry" />
        </mxCell>
        <mxCell id="4u9UJ2Gs67Vg1K7T1l2k-94" value="&lt;span style=&quot;font-size: 30px;&quot;&gt;&lt;u&gt;application_&lt;/u&gt;&lt;/span&gt;&lt;div&gt;&lt;span style=&quot;font-size: 30px;&quot;&gt;&lt;u&gt;no&lt;/u&gt;&lt;/span&gt;&lt;/div&gt;" style="ellipse;whiteSpace=wrap;html=1;labelBackgroundColor=none;fillColor=#182E3E;strokeColor=#FFFFFF;fontColor=#FFFFFF;" vertex="1" parent="1">
          <mxGeometry x="850" y="45" width="170" height="90" as="geometry" />
        </mxCell>
        <mxCell id="4u9UJ2Gs67Vg1K7T1l2k-95" value="&lt;span style=&quot;font-size: 30px;&quot;&gt;dob&lt;/span&gt;" style="ellipse;whiteSpace=wrap;html=1;labelBackgroundColor=none;fillColor=#182E3E;strokeColor=#FFFFFF;fontColor=#FFFFFF;" vertex="1" parent="1">
          <mxGeometry x="1390" y="-400" width="170" height="90" as="geometry" />
        </mxCell>
        <mxCell id="4u9UJ2Gs67Vg1K7T1l2k-99" value="&lt;span style=&quot;font-size: 30px;&quot;&gt;citizenship&lt;/span&gt;" style="ellipse;whiteSpace=wrap;html=1;labelBackgroundColor=none;fillColor=#182E3E;strokeColor=#FFFFFF;fontColor=#FFFFFF;" vertex="1" parent="1">
          <mxGeometry x="1490" y="-280" width="170" height="90" as="geometry" />
        </mxCell>
        <mxCell id="4u9UJ2Gs67Vg1K7T1l2k-100" value="&lt;span style=&quot;font-size: 30px;&quot;&gt;addr&lt;/span&gt;" style="ellipse;whiteSpace=wrap;html=1;labelBackgroundColor=none;fillColor=#182E3E;strokeColor=#FFFFFF;fontColor=#FFFFFF;" vertex="1" parent="1">
          <mxGeometry x="1510" y="-150" width="170" height="90" as="geometry" />
        </mxCell>
        <mxCell id="4u9UJ2Gs67Vg1K7T1l2k-101" value="&lt;span style=&quot;font-size: 30px;&quot;&gt;gender&lt;/span&gt;" style="ellipse;whiteSpace=wrap;html=1;labelBackgroundColor=none;fillColor=#182E3E;strokeColor=#FFFFFF;fontColor=#FFFFFF;" vertex="1" parent="1">
          <mxGeometry x="1360" y="100" width="170" height="90" as="geometry" />
        </mxCell>
        <mxCell id="4u9UJ2Gs67Vg1K7T1l2k-102" value="&lt;span style=&quot;font-size: 30px;&quot;&gt;nominee&lt;/span&gt;" style="ellipse;whiteSpace=wrap;html=1;labelBackgroundColor=none;fillColor=#182E3E;strokeColor=#FFFFFF;fontColor=#FFFFFF;" vertex="1" parent="1">
          <mxGeometry x="1470" y="-20" width="170" height="90" as="geometry" />
        </mxCell>
        <mxCell id="4u9UJ2Gs67Vg1K7T1l2k-103" value="&lt;span style=&quot;font-size: 30px;&quot;&gt;&lt;u&gt;ID&lt;/u&gt;&lt;/span&gt;" style="ellipse;whiteSpace=wrap;html=1;labelBackgroundColor=none;fillColor=#182E3E;strokeColor=#FFFFFF;fontColor=#FFFFFF;" vertex="1" parent="1">
          <mxGeometry x="950" y="600" width="170" height="90" as="geometry" />
        </mxCell>
        <mxCell id="4u9UJ2Gs67Vg1K7T1l2k-104" value="&lt;span style=&quot;font-size: 30px;&quot;&gt;beneficiary_&lt;/span&gt;&lt;div&gt;&lt;span style=&quot;font-size: 30px;&quot;&gt;name&lt;/span&gt;&lt;/div&gt;" style="ellipse;whiteSpace=wrap;html=1;labelBackgroundColor=none;fillColor=#182E3E;strokeColor=#FFFFFF;fontColor=#FFFFFF;" vertex="1" parent="1">
          <mxGeometry x="1160" y="500" width="170" height="90" as="geometry" />
        </mxCell>
        <mxCell id="4u9UJ2Gs67Vg1K7T1l2k-105" value="&lt;span style=&quot;font-size: 30px;&quot;&gt;beneficiary_&lt;/span&gt;&lt;div&gt;&lt;span style=&quot;font-size: 30px;&quot;&gt;acc_no&lt;/span&gt;&lt;/div&gt;" style="ellipse;whiteSpace=wrap;html=1;labelBackgroundColor=none;fillColor=#182E3E;strokeColor=#FFFFFF;fontColor=#FFFFFF;" vertex="1" parent="1">
          <mxGeometry x="1360" y="550" width="170" height="90" as="geometry" />
        </mxCell>
        <mxCell id="4u9UJ2Gs67Vg1K7T1l2k-106" value="&lt;span style=&quot;font-size: 30px;&quot;&gt;IFSC_code&lt;/span&gt;" style="ellipse;whiteSpace=wrap;html=1;labelBackgroundColor=none;fillColor=#182E3E;strokeColor=#FFFFFF;fontColor=#FFFFFF;" vertex="1" parent="1">
          <mxGeometry x="960" y="1040" width="170" height="90" as="geometry" />
        </mxCell>
        <mxCell id="4u9UJ2Gs67Vg1K7T1l2k-107" value="&lt;span style=&quot;font-size: 30px;&quot;&gt;date_added&lt;/span&gt;" style="ellipse;whiteSpace=wrap;html=1;labelBackgroundColor=none;fillColor=#182E3E;strokeColor=#FFFFFF;fontColor=#FFFFFF;" vertex="1" parent="1">
          <mxGeometry x="1210" y="1030" width="170" height="90" as="geometry" />
        </mxCell>
        <mxCell id="4u9UJ2Gs67Vg1K7T1l2k-108" value="&lt;span style=&quot;font-size: 30px;&quot;&gt;status&lt;/span&gt;" style="ellipse;whiteSpace=wrap;html=1;labelBackgroundColor=none;fillColor=#182E3E;strokeColor=#FFFFFF;fontColor=#FFFFFF;" vertex="1" parent="1">
          <mxGeometry x="1430" y="940" width="170" height="90" as="geometry" />
        </mxCell>
        <mxCell id="4u9UJ2Gs67Vg1K7T1l2k-109" value="&lt;span style=&quot;font-size: 30px;&quot;&gt;account_type&lt;/span&gt;" style="ellipse;whiteSpace=wrap;html=1;labelBackgroundColor=none;fillColor=#182E3E;strokeColor=#FFFFFF;fontColor=#FFFFFF;" vertex="1" parent="1">
          <mxGeometry x="1440" y="760" width="170" height="90" as="geometry" />
        </mxCell>
        <mxCell id="4u9UJ2Gs67Vg1K7T1l2k-110" value="&lt;span style=&quot;font-size: 30px;&quot;&gt;remarks&lt;/span&gt;" style="ellipse;whiteSpace=wrap;html=1;labelBackgroundColor=none;fillColor=#182E3E;strokeColor=#FFFFFF;fontColor=#FFFFFF;" vertex="1" parent="1">
          <mxGeometry x="-190" y="1430" width="170" height="90" as="geometry" />
        </mxCell>
        <mxCell id="4u9UJ2Gs67Vg1K7T1l2k-111" value="&lt;span style=&quot;font-size: 30px;&quot;&gt;net_balance&lt;/span&gt;" style="ellipse;whiteSpace=wrap;html=1;labelBackgroundColor=none;fillColor=#182E3E;strokeColor=#FFFFFF;fontColor=#FFFFFF;" vertex="1" parent="1">
          <mxGeometry x="-240" y="1590" width="170" height="90" as="geometry" />
        </mxCell>
        <mxCell id="4u9UJ2Gs67Vg1K7T1l2k-112" value="&lt;span style=&quot;font-size: 30px;&quot;&gt;cr_amount&lt;/span&gt;" style="ellipse;whiteSpace=wrap;html=1;labelBackgroundColor=none;fillColor=#182E3E;strokeColor=#FFFFFF;fontColor=#FFFFFF;" vertex="1" parent="1">
          <mxGeometry x="-240" y="1780" width="170" height="90" as="geometry" />
        </mxCell>
        <mxCell id="4u9UJ2Gs67Vg1K7T1l2k-113" value="&lt;span style=&quot;font-size: 30px;&quot;&gt;dr_amount&lt;/span&gt;" style="ellipse;whiteSpace=wrap;html=1;labelBackgroundColor=none;fillColor=#182E3E;strokeColor=#FFFFFF;fontColor=#FFFFFF;" vertex="1" parent="1">
          <mxGeometry x="-10" y="1840" width="170" height="90" as="geometry" />
        </mxCell>
        <mxCell id="4u9UJ2Gs67Vg1K7T1l2k-114" value="&lt;span style=&quot;font-size: 30px;&quot;&gt;descriptions&lt;/span&gt;" style="ellipse;whiteSpace=wrap;html=1;labelBackgroundColor=none;fillColor=#182E3E;strokeColor=#FFFFFF;fontColor=#FFFFFF;" vertex="1" parent="1">
          <mxGeometry x="280" y="1840" width="170" height="90" as="geometry" />
        </mxCell>
        <mxCell id="4u9UJ2Gs67Vg1K7T1l2k-115" value="&lt;span style=&quot;font-size: 30px;&quot;&gt;&lt;u&gt;id&lt;/u&gt;&lt;/span&gt;" style="ellipse;whiteSpace=wrap;html=1;labelBackgroundColor=none;fillColor=#182E3E;strokeColor=#FFFFFF;fontColor=#FFFFFF;" vertex="1" parent="1">
          <mxGeometry x="600" y="1420" width="170" height="90" as="geometry" />
        </mxCell>
        <mxCell id="4u9UJ2Gs67Vg1K7T1l2k-116" value="&lt;span style=&quot;font-size: 30px;&quot;&gt;transactions_&lt;/span&gt;&lt;div&gt;&lt;span style=&quot;font-size: 30px;&quot;&gt;id&lt;/span&gt;&lt;/div&gt;" style="ellipse;whiteSpace=wrap;html=1;labelBackgroundColor=none;fillColor=#182E3E;strokeColor=#FFFFFF;fontColor=#FFFFFF;" vertex="1" parent="1">
          <mxGeometry x="625" y="1620" width="170" height="90" as="geometry" />
        </mxCell>
        <mxCell id="4u9UJ2Gs67Vg1K7T1l2k-117" value="&lt;span style=&quot;font-size: 30px;&quot;&gt;transactions_&lt;/span&gt;&lt;div&gt;&lt;span style=&quot;font-size: 30px;&quot;&gt;date&lt;/span&gt;&lt;/div&gt;" style="ellipse;whiteSpace=wrap;html=1;labelBackgroundColor=none;fillColor=#182E3E;strokeColor=#FFFFFF;fontColor=#FFFFFF;" vertex="1" parent="1">
          <mxGeometry x="520" y="1770" width="170" height="90" as="geometry" />
        </mxCell>
        <mxCell id="4u9UJ2Gs67Vg1K7T1l2k-119" value="" style="endArrow=none;html=1;rounded=0;entryX=0;entryY=1;entryDx=0;entryDy=0;exitX=0.5;exitY=0;exitDx=0;exitDy=0;" edge="1" parent="1" source="4u9UJ2Gs67Vg1K7T1l2k-25" target="4u9UJ2Gs67Vg1K7T1l2k-93">
          <mxGeometry width="50" height="50" relative="1" as="geometry">
            <mxPoint x="1050" y="-80" as="sourcePoint" />
            <mxPoint x="1290" y="-387" as="targetPoint" />
          </mxGeometry>
        </mxCell>
        <mxCell id="4u9UJ2Gs67Vg1K7T1l2k-120" value="" style="endArrow=none;html=1;rounded=0;exitX=0.637;exitY=0.032;exitDx=0;exitDy=0;entryX=0;entryY=0.5;entryDx=0;entryDy=0;exitPerimeter=0;" edge="1" parent="1" source="4u9UJ2Gs67Vg1K7T1l2k-25" target="4u9UJ2Gs67Vg1K7T1l2k-95">
          <mxGeometry width="50" height="50" relative="1" as="geometry">
            <mxPoint x="1180" y="157" as="sourcePoint" />
            <mxPoint x="1420" y="-150" as="targetPoint" />
          </mxGeometry>
        </mxCell>
        <mxCell id="4u9UJ2Gs67Vg1K7T1l2k-121" value="" style="endArrow=none;html=1;rounded=0;entryX=-0.017;entryY=0.802;entryDx=0;entryDy=0;exitX=0.75;exitY=0;exitDx=0;exitDy=0;entryPerimeter=0;" edge="1" parent="1" source="4u9UJ2Gs67Vg1K7T1l2k-25" target="4u9UJ2Gs67Vg1K7T1l2k-99">
          <mxGeometry width="50" height="50" relative="1" as="geometry">
            <mxPoint x="1260" y="67" as="sourcePoint" />
            <mxPoint x="1500" y="-240" as="targetPoint" />
          </mxGeometry>
        </mxCell>
        <mxCell id="4u9UJ2Gs67Vg1K7T1l2k-122" value="" style="endArrow=none;html=1;rounded=0;entryX=0;entryY=0.333;entryDx=0;entryDy=0;exitX=0.908;exitY=0.032;exitDx=0;exitDy=0;exitPerimeter=0;entryPerimeter=0;" edge="1" parent="1" source="4u9UJ2Gs67Vg1K7T1l2k-25" target="4u9UJ2Gs67Vg1K7T1l2k-100">
          <mxGeometry width="50" height="50" relative="1" as="geometry">
            <mxPoint x="1280" y="197" as="sourcePoint" />
            <mxPoint x="1520" y="-110" as="targetPoint" />
          </mxGeometry>
        </mxCell>
        <mxCell id="4u9UJ2Gs67Vg1K7T1l2k-123" value="" style="endArrow=none;html=1;rounded=0;entryX=1;entryY=1;entryDx=0;entryDy=0;exitX=0.5;exitY=0;exitDx=0;exitDy=0;" edge="1" parent="1" source="4u9UJ2Gs67Vg1K7T1l2k-25" target="4u9UJ2Gs67Vg1K7T1l2k-92">
          <mxGeometry width="50" height="50" relative="1" as="geometry">
            <mxPoint x="890" y="-63" as="sourcePoint" />
            <mxPoint x="1130" y="-370" as="targetPoint" />
          </mxGeometry>
        </mxCell>
        <mxCell id="4u9UJ2Gs67Vg1K7T1l2k-124" value="" style="endArrow=none;html=1;rounded=0;exitX=0.396;exitY=0.125;exitDx=0;exitDy=0;exitPerimeter=0;" edge="1" parent="1" source="4u9UJ2Gs67Vg1K7T1l2k-25">
          <mxGeometry width="50" height="50" relative="1" as="geometry">
            <mxPoint x="805" y="8.5" as="sourcePoint" />
            <mxPoint x="1030" y="-320" as="targetPoint" />
          </mxGeometry>
        </mxCell>
        <mxCell id="4u9UJ2Gs67Vg1K7T1l2k-125" value="" style="endArrow=none;html=1;rounded=0;entryX=1;entryY=0.5;entryDx=0;entryDy=0;exitX=0.25;exitY=0;exitDx=0;exitDy=0;" edge="1" parent="1" source="4u9UJ2Gs67Vg1K7T1l2k-25" target="4u9UJ2Gs67Vg1K7T1l2k-90">
          <mxGeometry width="50" height="50" relative="1" as="geometry">
            <mxPoint x="760" y="157" as="sourcePoint" />
            <mxPoint x="1000" y="-150" as="targetPoint" />
          </mxGeometry>
        </mxCell>
        <mxCell id="4u9UJ2Gs67Vg1K7T1l2k-126" value="" style="endArrow=none;html=1;rounded=0;entryX=1;entryY=0.5;entryDx=0;entryDy=0;exitX=0.13;exitY=0.032;exitDx=0;exitDy=0;exitPerimeter=0;" edge="1" parent="1" source="4u9UJ2Gs67Vg1K7T1l2k-25" target="4u9UJ2Gs67Vg1K7T1l2k-89">
          <mxGeometry width="50" height="50" relative="1" as="geometry">
            <mxPoint x="740" y="287" as="sourcePoint" />
            <mxPoint x="980" y="-20" as="targetPoint" />
          </mxGeometry>
        </mxCell>
        <mxCell id="4u9UJ2Gs67Vg1K7T1l2k-127" value="" style="endArrow=none;html=1;rounded=0;entryX=0.5;entryY=1;entryDx=0;entryDy=0;exitX=0;exitY=0.25;exitDx=0;exitDy=0;" edge="1" parent="1" source="4u9UJ2Gs67Vg1K7T1l2k-25" target="4u9UJ2Gs67Vg1K7T1l2k-94">
          <mxGeometry width="50" height="50" relative="1" as="geometry">
            <mxPoint x="750" y="427" as="sourcePoint" />
            <mxPoint x="990" y="120" as="targetPoint" />
          </mxGeometry>
        </mxCell>
        <mxCell id="4u9UJ2Gs67Vg1K7T1l2k-128" value="" style="endArrow=none;html=1;rounded=0;entryX=0.412;entryY=1;entryDx=0;entryDy=0;exitX=0.75;exitY=0;exitDx=0;exitDy=0;entryPerimeter=0;" edge="1" parent="1" source="4u9UJ2Gs67Vg1K7T1l2k-14" target="4u9UJ2Gs67Vg1K7T1l2k-104">
          <mxGeometry width="50" height="50" relative="1" as="geometry">
            <mxPoint x="1180" y="840" as="sourcePoint" />
            <mxPoint x="1250" y="583" as="targetPoint" />
          </mxGeometry>
        </mxCell>
        <mxCell id="4u9UJ2Gs67Vg1K7T1l2k-129" value="" style="endArrow=none;html=1;rounded=0;entryX=0.649;entryY=1;entryDx=0;entryDy=0;exitX=0.5;exitY=0;exitDx=0;exitDy=0;entryPerimeter=0;" edge="1" parent="1" source="4u9UJ2Gs67Vg1K7T1l2k-14" target="4u9UJ2Gs67Vg1K7T1l2k-103">
          <mxGeometry width="50" height="50" relative="1" as="geometry">
            <mxPoint x="845" y="997" as="sourcePoint" />
            <mxPoint x="1085" y="690" as="targetPoint" />
          </mxGeometry>
        </mxCell>
        <mxCell id="4u9UJ2Gs67Vg1K7T1l2k-130" value="" style="endArrow=none;html=1;rounded=0;entryX=0;entryY=0.811;entryDx=0;entryDy=0;exitX=1;exitY=0;exitDx=0;exitDy=0;entryPerimeter=0;" edge="1" parent="1" source="4u9UJ2Gs67Vg1K7T1l2k-14" target="4u9UJ2Gs67Vg1K7T1l2k-105">
          <mxGeometry width="50" height="50" relative="1" as="geometry">
            <mxPoint x="1160" y="930" as="sourcePoint" />
            <mxPoint x="1400" y="623" as="targetPoint" />
          </mxGeometry>
        </mxCell>
        <mxCell id="4u9UJ2Gs67Vg1K7T1l2k-131" value="" style="endArrow=none;html=1;rounded=0;entryX=0;entryY=0.5;entryDx=0;entryDy=0;exitX=1;exitY=0.25;exitDx=0;exitDy=0;" edge="1" parent="1" source="4u9UJ2Gs67Vg1K7T1l2k-14" target="4u9UJ2Gs67Vg1K7T1l2k-109">
          <mxGeometry width="50" height="50" relative="1" as="geometry">
            <mxPoint x="1275" y="897" as="sourcePoint" />
            <mxPoint x="1515" y="590" as="targetPoint" />
          </mxGeometry>
        </mxCell>
        <mxCell id="4u9UJ2Gs67Vg1K7T1l2k-132" value="" style="endArrow=none;html=1;rounded=0;entryX=0;entryY=0;entryDx=0;entryDy=0;exitX=1;exitY=1;exitDx=0;exitDy=0;" edge="1" parent="1" source="4u9UJ2Gs67Vg1K7T1l2k-14" target="4u9UJ2Gs67Vg1K7T1l2k-108">
          <mxGeometry width="50" height="50" relative="1" as="geometry">
            <mxPoint x="1270" y="900" as="sourcePoint" />
            <mxPoint x="1510" y="623" as="targetPoint" />
          </mxGeometry>
        </mxCell>
        <mxCell id="4u9UJ2Gs67Vg1K7T1l2k-133" value="" style="endArrow=none;html=1;rounded=0;entryX=0.75;entryY=1;entryDx=0;entryDy=0;exitX=0.5;exitY=0;exitDx=0;exitDy=0;" edge="1" parent="1" source="4u9UJ2Gs67Vg1K7T1l2k-107" target="4u9UJ2Gs67Vg1K7T1l2k-14">
          <mxGeometry width="50" height="50" relative="1" as="geometry">
            <mxPoint x="930" y="1237" as="sourcePoint" />
            <mxPoint x="1170" y="930" as="targetPoint" />
          </mxGeometry>
        </mxCell>
        <mxCell id="4u9UJ2Gs67Vg1K7T1l2k-134" value="" style="endArrow=none;html=1;rounded=0;entryX=0.229;entryY=1;entryDx=0;entryDy=0;exitX=0.5;exitY=0;exitDx=0;exitDy=0;entryPerimeter=0;" edge="1" parent="1" source="4u9UJ2Gs67Vg1K7T1l2k-106" target="4u9UJ2Gs67Vg1K7T1l2k-14">
          <mxGeometry width="50" height="50" relative="1" as="geometry">
            <mxPoint x="880" y="1237" as="sourcePoint" />
            <mxPoint x="1120" y="930" as="targetPoint" />
          </mxGeometry>
        </mxCell>
        <mxCell id="4u9UJ2Gs67Vg1K7T1l2k-135" value="&lt;span style=&quot;font-size: 30px;&quot;&gt;cvv&lt;/span&gt;" style="ellipse;whiteSpace=wrap;html=1;labelBackgroundColor=none;fillColor=#182E3E;strokeColor=#FFFFFF;fontColor=#FFFFFF;" vertex="1" parent="1">
          <mxGeometry x="400" y="580" width="170" height="90" as="geometry" />
        </mxCell>
        <mxCell id="4u9UJ2Gs67Vg1K7T1l2k-136" value="&lt;span style=&quot;font-size: 30px;&quot;&gt;nominee_ac&lt;/span&gt;&lt;div&gt;&lt;span style=&quot;font-size: 30px;&quot;&gt;_number&lt;/span&gt;&lt;/div&gt;" style="ellipse;whiteSpace=wrap;html=1;labelBackgroundColor=none;fillColor=#182E3E;strokeColor=#FFFFFF;fontColor=#FFFFFF;" vertex="1" parent="1">
          <mxGeometry x="540" y="700" width="170" height="90" as="geometry" />
        </mxCell>
        <mxCell id="4u9UJ2Gs67Vg1K7T1l2k-137" value="&lt;span style=&quot;font-size: 30px;&quot;&gt;last_&lt;/span&gt;&lt;div&gt;&lt;span style=&quot;font-size: 30px;&quot;&gt;transcation&lt;/span&gt;&lt;/div&gt;" style="ellipse;whiteSpace=wrap;html=1;labelBackgroundColor=none;fillColor=#182E3E;strokeColor=#FFFFFF;fontColor=#FFFFFF;" vertex="1" parent="1">
          <mxGeometry x="340" y="1070" width="170" height="90" as="geometry" />
        </mxCell>
        <mxCell id="4u9UJ2Gs67Vg1K7T1l2k-138" value="&lt;span style=&quot;font-size: 30px;&quot;&gt;nominee_&lt;/span&gt;&lt;div&gt;&lt;span style=&quot;font-size: 30px;&quot;&gt;name&lt;/span&gt;&lt;/div&gt;" style="ellipse;whiteSpace=wrap;html=1;labelBackgroundColor=none;fillColor=#182E3E;strokeColor=#FFFFFF;fontColor=#FFFFFF;" vertex="1" parent="1">
          <mxGeometry x="510" y="1000" width="170" height="90" as="geometry" />
        </mxCell>
        <mxCell id="4u9UJ2Gs67Vg1K7T1l2k-139" value="" style="endArrow=none;html=1;rounded=0;exitX=0.75;exitY=0;exitDx=0;exitDy=0;labelBackgroundColor=none;strokeColor=#23445D;fontColor=default;entryX=0;entryY=1;entryDx=0;entryDy=0;" edge="1" parent="1" source="4u9UJ2Gs67Vg1K7T1l2k-6" target="4u9UJ2Gs67Vg1K7T1l2k-135">
          <mxGeometry width="50" height="50" relative="1" as="geometry">
            <mxPoint x="288" y="848" as="sourcePoint" />
            <mxPoint x="225" y="730" as="targetPoint" />
          </mxGeometry>
        </mxCell>
        <mxCell id="4u9UJ2Gs67Vg1K7T1l2k-140" value="" style="endArrow=none;html=1;rounded=0;entryX=0;entryY=0.5;entryDx=0;entryDy=0;exitX=0.91;exitY=0;exitDx=0;exitDy=0;labelBackgroundColor=none;strokeColor=#23445D;fontColor=default;exitPerimeter=0;" edge="1" parent="1" source="4u9UJ2Gs67Vg1K7T1l2k-6" target="4u9UJ2Gs67Vg1K7T1l2k-136">
          <mxGeometry width="50" height="50" relative="1" as="geometry">
            <mxPoint x="298" y="858" as="sourcePoint" />
            <mxPoint x="235" y="740" as="targetPoint" />
          </mxGeometry>
        </mxCell>
        <mxCell id="4u9UJ2Gs67Vg1K7T1l2k-142" value="" style="endArrow=none;html=1;rounded=0;entryX=0;entryY=0;entryDx=0;entryDy=0;exitX=0.75;exitY=1;exitDx=0;exitDy=0;labelBackgroundColor=none;strokeColor=#23445D;fontColor=default;" edge="1" parent="1" source="4u9UJ2Gs67Vg1K7T1l2k-6" target="4u9UJ2Gs67Vg1K7T1l2k-137">
          <mxGeometry width="50" height="50" relative="1" as="geometry">
            <mxPoint x="318" y="878" as="sourcePoint" />
            <mxPoint x="255" y="760" as="targetPoint" />
          </mxGeometry>
        </mxCell>
        <mxCell id="4u9UJ2Gs67Vg1K7T1l2k-143" value="" style="endArrow=none;html=1;rounded=0;entryX=0;entryY=0;entryDx=0;entryDy=0;exitX=1;exitY=1;exitDx=0;exitDy=0;labelBackgroundColor=none;strokeColor=#23445D;fontColor=default;" edge="1" parent="1" source="4u9UJ2Gs67Vg1K7T1l2k-6" target="4u9UJ2Gs67Vg1K7T1l2k-138">
          <mxGeometry width="50" height="50" relative="1" as="geometry">
            <mxPoint x="328" y="888" as="sourcePoint" />
            <mxPoint x="265" y="770" as="targetPoint" />
          </mxGeometry>
        </mxCell>
        <mxCell id="4u9UJ2Gs67Vg1K7T1l2k-145" value="" style="endArrow=none;html=1;rounded=0;entryX=0.5;entryY=0;entryDx=0;entryDy=0;exitX=0.5;exitY=1;exitDx=0;exitDy=0;labelBackgroundColor=none;strokeColor=#23445D;fontColor=default;" edge="1" parent="1" source="4u9UJ2Gs67Vg1K7T1l2k-19" target="4u9UJ2Gs67Vg1K7T1l2k-114">
          <mxGeometry width="50" height="50" relative="1" as="geometry">
            <mxPoint x="340" y="1620" as="sourcePoint" />
            <mxPoint x="244" y="1795" as="targetPoint" />
          </mxGeometry>
        </mxCell>
        <mxCell id="4u9UJ2Gs67Vg1K7T1l2k-146" value="" style="endArrow=none;html=1;rounded=0;entryX=1;entryY=0;entryDx=0;entryDy=0;exitX=0.25;exitY=1;exitDx=0;exitDy=0;labelBackgroundColor=none;strokeColor=#23445D;fontColor=default;" edge="1" parent="1" source="4u9UJ2Gs67Vg1K7T1l2k-19" target="4u9UJ2Gs67Vg1K7T1l2k-113">
          <mxGeometry width="50" height="50" relative="1" as="geometry">
            <mxPoint x="216" y="1680" as="sourcePoint" />
            <mxPoint x="120" y="1855" as="targetPoint" />
          </mxGeometry>
        </mxCell>
        <mxCell id="4u9UJ2Gs67Vg1K7T1l2k-147" value="" style="endArrow=none;html=1;rounded=0;entryX=1;entryY=0.667;entryDx=0;entryDy=0;exitX=0;exitY=0.75;exitDx=0;exitDy=0;labelBackgroundColor=none;strokeColor=#23445D;fontColor=default;entryPerimeter=0;" edge="1" parent="1" source="4u9UJ2Gs67Vg1K7T1l2k-19" target="4u9UJ2Gs67Vg1K7T1l2k-112">
          <mxGeometry width="50" height="50" relative="1" as="geometry">
            <mxPoint x="26" y="1640" as="sourcePoint" />
            <mxPoint x="-70" y="1815" as="targetPoint" />
          </mxGeometry>
        </mxCell>
        <mxCell id="4u9UJ2Gs67Vg1K7T1l2k-148" value="" style="endArrow=none;html=1;rounded=0;entryX=1;entryY=1;entryDx=0;entryDy=0;exitX=0;exitY=0.5;exitDx=0;exitDy=0;labelBackgroundColor=none;strokeColor=#23445D;fontColor=default;" edge="1" parent="1" source="4u9UJ2Gs67Vg1K7T1l2k-19" target="4u9UJ2Gs67Vg1K7T1l2k-111">
          <mxGeometry width="50" height="50" relative="1" as="geometry">
            <mxPoint x="23" y="1475" as="sourcePoint" />
            <mxPoint x="-73" y="1650" as="targetPoint" />
          </mxGeometry>
        </mxCell>
        <mxCell id="4u9UJ2Gs67Vg1K7T1l2k-149" value="" style="endArrow=none;html=1;rounded=0;entryX=1;entryY=1;entryDx=0;entryDy=0;exitX=0;exitY=0;exitDx=0;exitDy=0;labelBackgroundColor=none;strokeColor=#23445D;fontColor=default;" edge="1" parent="1" source="4u9UJ2Gs67Vg1K7T1l2k-19" target="4u9UJ2Gs67Vg1K7T1l2k-110">
          <mxGeometry width="50" height="50" relative="1" as="geometry">
            <mxPoint x="70" y="1310" as="sourcePoint" />
            <mxPoint x="-26" y="1485" as="targetPoint" />
          </mxGeometry>
        </mxCell>
        <mxCell id="4u9UJ2Gs67Vg1K7T1l2k-151" value="" style="endArrow=none;html=1;rounded=0;entryX=1;entryY=0;entryDx=0;entryDy=0;exitX=0;exitY=0.5;exitDx=0;exitDy=0;labelBackgroundColor=none;strokeColor=#23445D;fontColor=default;" edge="1" parent="1" source="4u9UJ2Gs67Vg1K7T1l2k-115" target="4u9UJ2Gs67Vg1K7T1l2k-19">
          <mxGeometry width="50" height="50" relative="1" as="geometry">
            <mxPoint x="530" y="1430" as="sourcePoint" />
            <mxPoint x="434" y="1605" as="targetPoint" />
          </mxGeometry>
        </mxCell>
        <mxCell id="4u9UJ2Gs67Vg1K7T1l2k-152" value="" style="endArrow=none;html=1;rounded=0;entryX=1;entryY=0.5;entryDx=0;entryDy=0;exitX=0;exitY=0;exitDx=0;exitDy=0;labelBackgroundColor=none;strokeColor=#23445D;fontColor=default;" edge="1" parent="1" source="4u9UJ2Gs67Vg1K7T1l2k-116" target="4u9UJ2Gs67Vg1K7T1l2k-19">
          <mxGeometry width="50" height="50" relative="1" as="geometry">
            <mxPoint x="556" y="1475" as="sourcePoint" />
            <mxPoint x="460" y="1650" as="targetPoint" />
          </mxGeometry>
        </mxCell>
        <mxCell id="4u9UJ2Gs67Vg1K7T1l2k-153" value="" style="endArrow=none;html=1;rounded=0;entryX=1;entryY=0.75;entryDx=0;entryDy=0;exitX=0;exitY=0;exitDx=0;exitDy=0;labelBackgroundColor=none;strokeColor=#23445D;fontColor=default;" edge="1" parent="1" source="4u9UJ2Gs67Vg1K7T1l2k-117" target="4u9UJ2Gs67Vg1K7T1l2k-19">
          <mxGeometry width="50" height="50" relative="1" as="geometry">
            <mxPoint x="506" y="1490" as="sourcePoint" />
            <mxPoint x="410" y="1665" as="targetPoint" />
          </mxGeometry>
        </mxCell>
        <mxCell id="4u9UJ2Gs67Vg1K7T1l2k-155" value="&lt;font style=&quot;font-size: 35px;&quot;&gt;.&lt;/font&gt;" style="text;html=1;align=center;verticalAlign=middle;resizable=0;points=[];autosize=1;strokeColor=none;fillColor=none;fontColor=#FFFFFF;" vertex="1" parent="1">
          <mxGeometry x="-1755" y="163" width="30" height="60" as="geometry" />
        </mxCell>
        <mxCell id="4u9UJ2Gs67Vg1K7T1l2k-157" value="&lt;font color=&quot;#000000&quot;&gt;&lt;span style=&quot;font-size: 30px;&quot;&gt;1&lt;/span&gt;&lt;/font&gt;" style="text;html=1;align=center;verticalAlign=middle;resizable=0;points=[];autosize=1;strokeColor=none;fillColor=none;fontColor=#FFFFFF;" vertex="1" parent="1">
          <mxGeometry x="430" y="200" width="40" height="50" as="geometry" />
        </mxCell>
        <mxCell id="4u9UJ2Gs67Vg1K7T1l2k-158" value="&lt;div style=&quot;text-align: center;&quot;&gt;&lt;font color=&quot;#000000&quot;&gt;&lt;span style=&quot;font-size: 30px; text-wrap: nowrap;&quot;&gt;M&lt;/span&gt;&lt;/font&gt;&lt;/div&gt;" style="text;whiteSpace=wrap;html=1;fontColor=#FFFFFF;" vertex="1" parent="1">
          <mxGeometry x="1000" y="205" width="50" height="60" as="geometry" />
        </mxCell>
        <mxCell id="4u9UJ2Gs67Vg1K7T1l2k-159" value="&lt;div style=&quot;text-align: center;&quot;&gt;&lt;span style=&quot;background-color: initial; font-size: 30px; text-wrap: nowrap;&quot;&gt;&lt;font color=&quot;#000000&quot;&gt;1&lt;/font&gt;&lt;/span&gt;&lt;/div&gt;" style="text;whiteSpace=wrap;html=1;fontColor=#FFFFFF;" vertex="1" parent="1">
          <mxGeometry x="322.5" y="240" width="50" height="60" as="geometry" />
        </mxCell>
        <mxCell id="4u9UJ2Gs67Vg1K7T1l2k-160" value="&lt;div style=&quot;text-align: center;&quot;&gt;&lt;span style=&quot;background-color: initial; font-size: 30px; text-wrap: nowrap;&quot;&gt;&lt;font color=&quot;#000000&quot;&gt;M&lt;/font&gt;&lt;/span&gt;&lt;/div&gt;" style="text;whiteSpace=wrap;html=1;fontColor=#FFFFFF;" vertex="1" parent="1">
          <mxGeometry x="310" y="790" width="50" height="60" as="geometry" />
        </mxCell>
        <mxCell id="4u9UJ2Gs67Vg1K7T1l2k-161" value="&lt;span style=&quot;color: rgb(0, 0, 0); font-family: Helvetica; font-size: 30px; font-style: normal; font-variant-ligatures: normal; font-variant-caps: normal; font-weight: 400; letter-spacing: normal; orphans: 2; text-align: center; text-indent: 0px; text-transform: none; widows: 2; word-spacing: 0px; -webkit-text-stroke-width: 0px; white-space: nowrap; background-color: rgb(255, 255, 255); text-decoration-thickness: initial; text-decoration-style: initial; text-decoration-color: initial; display: inline !important; float: none;&quot;&gt;1&lt;/span&gt;" style="text;whiteSpace=wrap;html=1;fontColor=#FFFFFF;" vertex="1" parent="1">
          <mxGeometry x="320" y="930" width="50" height="60" as="geometry" />
        </mxCell>
        <mxCell id="4u9UJ2Gs67Vg1K7T1l2k-162" value="&lt;span style=&quot;color: rgb(0, 0, 0); font-family: Helvetica; font-size: 30px; font-style: normal; font-variant-ligatures: normal; font-variant-caps: normal; font-weight: 400; letter-spacing: normal; orphans: 2; text-align: center; text-indent: 0px; text-transform: none; widows: 2; word-spacing: 0px; -webkit-text-stroke-width: 0px; white-space: nowrap; background-color: rgb(255, 255, 255); text-decoration-thickness: initial; text-decoration-style: initial; text-decoration-color: initial; display: inline !important; float: none;&quot;&gt;1&lt;/span&gt;" style="text;whiteSpace=wrap;html=1;fontColor=#FFFFFF;" vertex="1" parent="1">
          <mxGeometry x="320" y="1520" width="50" height="60" as="geometry" />
        </mxCell>
        <mxCell id="4u9UJ2Gs67Vg1K7T1l2k-163" value="&lt;span style=&quot;color: rgb(0, 0, 0); font-family: Helvetica; font-size: 30px; font-style: normal; font-variant-ligatures: normal; font-variant-caps: normal; font-weight: 400; letter-spacing: normal; orphans: 2; text-align: center; text-indent: 0px; text-transform: none; widows: 2; word-spacing: 0px; -webkit-text-stroke-width: 0px; white-space: nowrap; background-color: rgb(255, 255, 255); text-decoration-thickness: initial; text-decoration-style: initial; text-decoration-color: initial; display: inline !important; float: none;&quot;&gt;1&lt;/span&gt;" style="text;whiteSpace=wrap;html=1;fontColor=#FFFFFF;" vertex="1" parent="1">
          <mxGeometry x="440" y="895" width="50" height="60" as="geometry" />
        </mxCell>
        <mxCell id="4u9UJ2Gs67Vg1K7T1l2k-164" value="&lt;div style=&quot;text-align: center;&quot;&gt;&lt;span style=&quot;background-color: initial; font-size: 30px; text-wrap: nowrap;&quot;&gt;&lt;font color=&quot;#000000&quot;&gt;M&lt;/font&gt;&lt;/span&gt;&lt;/div&gt;" style="text;whiteSpace=wrap;html=1;fontColor=#FFFFFF;" vertex="1" parent="1">
          <mxGeometry x="1010" y="895" width="50" height="60" as="geometry" />
        </mxCell>
      </root>
    </mxGraphModel>
  </diagram>
</mxfile>
